name D:\school\WTK\thesis\model\3dpredictsim\Results\debug_batch\Pog_s1_tmt_bCst_d00_k2000_ig24_act_TTC.mot
datacolumns 128
datarows 4
range 1.82778186 1.86433750
endheader
time	pelvis_tilt	pelvis_list	pelvis_rotation	pelvis_tx	pelvis_ty	pelvis_tz	hip_flexion_l	hip_adduction_l	hip_rotation_l	hip_flexion_r	hip_adduction_r	hip_rotation_r	knee_angle_l	knee_angle_r	ankle_angle_l	ankle_angle_r	subtalar_angle_l	subtalar_angle_r	tmt_angle_l	tmt_angle_r	mtp_angle_l	mtp_angle_r	lumbar_extension	lumbar_bending	lumbar_rotation	arm_flex_l	arm_add_l	arm_rot_l	arm_flex_r	arm_add_r	arm_rot_r	elbow_flex_l	elbow_flex_r	pro_sup_l	pro_sup_r	glut_med1_l/activation	glut_med2_l/activation	glut_med3_l/activation	glut_min1_l/activation	glut_min2_l/activation	glut_min3_l/activation	semimem_l/activation	semiten_l/activation	bifemlh_l/activation	bifemsh_l/activation	sar_l/activation	add_long_l/activation	add_brev_l/activation	add_mag1_l/activation	add_mag2_l/activation	add_mag3_l/activation	tfl_l/activation	pect_l/activation	grac_l/activation	glut_max1_l/activation	glut_max2_l/activation	glut_max3_l/activation	iliacus_l/activation	psoas_l/activation	quad_fem_l/activation	gem_l/activation	peri_l/activation	rect_fem_l/activation	vas_med_l/activation	vas_int_l/activation	vas_lat_l/activation	med_gas_l/activation	lat_gas_l/activation	soleus_l/activation	tib_post_l/activation	flex_dig_l/activation	flex_hal_l/activation	tib_ant_l/activation	per_brev_l/activation	per_long_l/activation	per_tert_l/activation	ext_dig_l/activation	ext_hal_l/activation	ercspn_l/activation	intobl_l/activation	extobl_l/activation	glut_med1_r/activation	glut_med2_r/activation	glut_med3_r/activation	glut_min1_r/activation	glut_min2_r/activation	glut_min3_r/activation	semimem_r/activation	semiten_r/activation	bifemlh_r/activation	bifemsh_r/activation	sar_r/activation	add_long_r/activation	add_brev_r/activation	add_mag1_r/activation	add_mag2_r/activation	add_mag3_r/activation	tfl_r/activation	pect_r/activation	grac_r/activation	glut_max1_r/activation	glut_max2_r/activation	glut_max3_r/activation	iliacus_r/activation	psoas_r/activation	quad_fem_r/activation	gem_r/activation	peri_r/activation	rect_fem_r/activation	vas_med_r/activation	vas_int_r/activation	vas_lat_r/activation	med_gas_r/activation	lat_gas_r/activation	soleus_r/activation	tib_post_r/activation	flex_dig_r/activation	flex_hal_r/activation	tib_ant_r/activation	per_brev_r/activation	per_long_r/activation	per_tert_r/activation	ext_dig_r/activation	ext_hal_r/activation	ercspn_r/activation	intobl_r/activation	extobl_r/activation	
          1.82778186	         -2.93017641	          1.54652099	         -8.00358766	          2.28472732	          0.85605941	          0.00289246	         33.07108483	          1.08890818	         -0.59195075	        -16.03699248	         -2.59381199	          7.12381568	        -15.66249040	        -15.59971712	          9.30523460	         -6.16920355	         -0.34318980	         15.19017786	          0.01189904	          0.69359443	         -0.09560956	         28.56638281	         -0.33914530	          0.81769359	          2.95334147	        -12.18730553	        -13.49884275	          6.97439328	          3.41691747	        -13.50189871	         17.39252787	         18.18000117	         44.54674281	         86.51662706	         86.51662706	          0.05000038	          0.05000023	          0.05000070	          0.05000028	          0.05000032	          0.05000077	          0.14504932	          0.06015412	          0.12571469	          0.05000073	          0.05004733	          0.07040429	          0.09211564	          0.18418561	          0.14284652	          0.11086077	          0.05000243	          0.06014701	          0.06015467	          0.05000042	          0.05000113	          0.08929149	          0.05997676	          0.06015470	          0.17505142	          0.05000661	          0.05001217	          0.05000726	          0.10908792	          0.11373091	          0.09821713	          0.06015434	          0.06015434	          0.06015433	          0.05000007	          0.05000077	          0.05000509	          0.53077793	          0.34229627	          0.20384852	          0.14864934	          0.57109164	          0.36254249	          0.05433269	          0.13335629	          0.11140387	          0.18032243	          0.08706804	          0.07804935	          0.20448440	          0.12946672	          0.08706599	          0.05000180	          0.05000021	          0.05000020	          0.05000066	          0.09043221	          0.05000144	          0.05000030	          0.05000032	          0.05000052	          0.05000037	          0.17753052	          0.05000331	          0.05000104	          0.05000701	          0.05000259	          0.05000086	          0.37384542	          0.56707576	          0.05000069	          0.05000177	          0.06255097	          0.20935078	          0.08071642	          0.08101084	          0.08391168	          0.16239759	          0.24366208	          0.06015436	          0.16945563	          0.20124220	          0.21805295	          0.05000002	          0.35918637	          0.33035185	          0.05000007	          0.20428610	          0.05000013	          0.05000001	          0.05000003	          0.05000005	
          1.83996707	         -2.92523130	          1.47445926	         -8.16051597	          2.30432396	          0.85489195	          0.00251486	         32.36064219	          1.33734241	         -0.39963939	        -16.24916611	         -2.77727964	          6.91207198	        -15.60840345	        -16.89495619	          8.70995150	         -8.90186318	         -0.68893969	         15.49348766	          0.01975227	          0.53716170	         -0.09314753	         30.09849895	         -0.08378773	          0.67369646	          3.04805487	        -13.61057933	        -13.47564856	          6.82490275	          2.98099693	        -13.55781225	         17.69574354	         18.18631050	         45.72639009	         86.51662706	         86.51662706	          0.07372356	          0.08053963	          0.05000105	          0.06015433	          0.06015390	          0.05000622	          0.12056437	          0.05000018	          0.10449351	          0.05000019	          0.05000093	          0.05851982	          0.07656617	          0.22640359	          0.19841121	          0.12897384	          0.05000058	          0.05000109	          0.05000060	          0.06015440	          0.10209714	          0.11391392	          0.05000014	          0.05000064	          0.38182810	          0.06015563	          0.07209077	          0.07237084	          0.23004883	          0.22864158	          0.20198958	          0.05000000	          0.05000001	          0.05000000	          0.05000011	          0.07236942	          0.05000055	          0.69063211	          0.36225466	          0.22512319	          0.53024953	          0.63896981	          0.44416793	          0.05000001	          0.11084511	          0.09259836	          0.14988324	          0.07237064	          0.06487464	          0.16996658	          0.10761219	          0.07236901	          0.05000150	          0.05000014	          0.05000020	          0.05000016	          0.07516700	          0.12759750	          0.15920442	          0.11061389	          0.05033891	          0.05000188	          0.14756256	          0.06163095	          0.05000183	          0.05000307	          0.05000220	          0.05000253	          0.31073854	          0.47135070	          0.07237052	          0.06739537	          0.06015461	          0.17401137	          0.10070867	          0.11253636	          0.07836137	          0.13498410	          0.20253075	          0.05000004	          0.14085071	          0.16727158	          0.18124459	          0.22981027	          0.36146961	          0.30497532	          0.47581776	          0.36722391	          0.19066006	          0.05859307	          0.06763283	          0.05025585	
          1.85215228	         -2.91361775	          1.40403663	         -8.27939345	          2.32412248	          0.85344539	          0.00215507	         31.52712138	          1.57072593	         -0.14677560	        -16.27015616	         -2.92279700	          6.69840642	        -16.19212812	        -18.55312910	          8.02609178	        -11.46080035	         -1.04928823	         15.74789921	         -0.01648899	          0.38381928	         -0.15786409	         30.82739907	          0.17979099	          0.51271913	          3.12618633	        -15.00208548	        -13.46440440	          6.76669132	          2.47733480	        -13.62157960	         17.92525727	         18.14529650	         46.88077716	         86.51662706	         86.51662706	          0.24399791	          0.22276414	          0.38391760	          0.05000040	          0.05000024	          0.32639645	          0.11000218	          0.05000126	          0.10347398	          0.05000014	          0.05000038	          0.07237140	          0.17672493	          0.24202087	          0.22632796	          0.15966118	          0.05000024	          0.06610121	          0.12581424	          0.05000020	          0.16851420	          0.16812143	          0.05027172	          0.05000037	          0.31737382	          0.05000141	          0.28595966	          0.06015431	          0.19121559	          0.19004595	          0.16789289	          0.06015433	          0.06015433	          0.06015433	          0.06015428	          0.06015363	          0.06015436	          0.57725171	          0.34524425	          0.18712147	          0.44074128	          0.64685997	          0.36919072	          0.05667805	          0.09213436	          0.07696731	          0.17335148	          0.06015422	          0.05392358	          0.14127558	          0.08944680	          0.06015286	          0.05005518	          0.06015494	          0.06015573	          0.05000056	          0.06247864	          0.17081952	          0.29056116	          0.15987338	          0.09209391	          0.14375027	          0.12265333	          0.05123020	          0.06015412	          0.05204850	          0.06014769	          0.06015457	          0.25828441	          0.39178460	          0.06015433	          0.05601916	          0.05000027	          0.14463741	          0.08370861	          0.09353972	          0.06513362	          0.11219813	          0.16834259	          0.05000000	          0.11707444	          0.13903537	          0.15064965	          0.43940978	          0.42311985	          0.31026785	          0.71077164	          0.52233433	          0.38777540	          0.07724713	          0.05621610	          0.05000013	
          1.86433750	         -2.89839791	          1.33881249	         -8.35474925	          2.34377554	          0.85176526	          0.00179886	         30.61110072	          1.79557851	          0.13135978	        -16.05737449	         -3.03057443	          6.50351190	        -16.89253461	        -20.63543145	          7.55614215	        -13.51163147	         -1.41515077	         15.96358186	         -0.01013598	          0.28954927	         -0.16364774	         29.99938623	          0.42146361	          0.33201577	          3.18529043	        -16.28529047	        -13.47202771	          6.85493860	          1.96013433	        -13.68496527	         18.08266536	         18.00994188	         47.98815402	         86.51662706	         86.51662706	          0.31108252	          0.38606033	          0.47909220	          0.17303105	          0.21754942	          0.27130000	          0.09143330	          0.09241976	          0.08600713	          0.07237074	          0.05000051	          0.06015479	          0.14689293	          0.20116681	          0.22003309	          0.16971843	          0.05000018	          0.05494328	          0.10457643	          0.26822038	          0.22951987	          0.19388077	          0.05000005	          0.05000006	          0.26379983	          0.07753967	          0.23768897	          0.05000003	          0.15893828	          0.23540205	          0.19693437	          0.05000001	          0.05000003	          0.05000000	          0.05000000	          0.05000018	          0.05000014	          0.73150506	          0.38115692	          0.19112288	          0.69141744	          0.74072042	          0.54150881	          0.06784909	          0.07658173	          0.06397487	          0.24100582	          0.05000010	          0.05000003	          0.19863802	          0.07434784	          0.05000022	          0.05000328	          0.05000060	          0.05000127	          0.05000017	          0.05193231	          0.14198484	          0.26712216	          0.13288627	          0.07654875	          0.11948482	          0.10194893	          0.05712615	          0.05000051	          0.05000083	          0.05000059	          0.05000060	          0.21468480	          0.39015673	          0.05000008	          0.05000028	          0.05000013	          0.12022193	          0.08706819	          0.08706819	          0.05413885	          0.09325855	          0.13992556	          0.05000001	          0.09731172	          0.11556561	          0.12521932	          0.36525292	          0.35169524	          0.25789321	          0.65200520	          0.60104679	          0.32231732	          0.11044582	          0.05000000	          0.05000004	
